<svg width="512" height="512" xmlns="http://www.w3.org/2000/svg">

 <g>
  <title>background</title>
  <rect fill="none" id="canvas_background" height="402" width="582" y="-1" x="-1"/>
 </g>
 <g>
  <title>Layer 1</title>
  <path id="svg_2" fill="#ffffff" d="m425.614,86.28c-43.31,-43.311 -103.361,-70.276 -169.652,-70.276c-66.16,0 -126.207,26.966 -169.652,70.276c-43.445,43.445 -70.282,103.492 -70.282,169.789c0,66.156 26.836,126.212 70.282,169.65c43.445,43.311 103.492,70.276 169.652,70.276c66.291,0 126.342,-26.966 169.652,-70.276c43.443,-43.438 70.282,-103.494 70.282,-169.65c0,-66.297 -26.838,-126.343 -70.282,-169.789zm-13.149,326.158c-40.126,39.988 -95.389,64.83 -156.502,64.83c-60.979,0 -116.379,-24.842 -156.365,-64.83c-39.993,-39.989 -64.835,-95.389 -64.835,-156.368c0,-61.113 24.842,-116.514 64.835,-156.502c39.986,-39.993 95.386,-64.7 156.365,-64.7c61.114,0 116.376,24.707 156.502,64.7c39.988,39.988 64.698,95.389 64.698,156.502c0,60.979 -24.71,116.378 -64.698,156.368z"/>
  <path id="svg_3" fill="#ffffff" d="m164.744,164.798c-0.663,1.59 -0.744,3.451 -0.744,5.578l0,171.25c0,1.992 0.081,3.852 0.744,5.441l96.051,-90.998l-96.051,-91.271z"/>
  <path id="svg_4" fill="#ffffff" d="m298.211,220.595l-112.125,-62.308c-4.521,-2.92 -8.903,-3.585 -12.755,-2.527l96.583,91.67l28.297,-26.835z"/>
  <path id="svg_5" fill="#ffffff" d="m339.661,243.582l-29.891,-16.61l-30.823,29.098l31.216,29.489l29.096,-15.941c14.351,-7.974 9.038,-21.124 0.402,-26.036z"/>
  <path id="svg_6" fill="#ffffff" d="m173.063,356.104c3.984,1.335 8.5,0.398 13.022,-2.262l112.522,-61.641l-28.963,-27.497l-96.581,91.4z"/>
 </g>
</svg>